<?xml version="1.0" encoding="UTF-8"?>
<svg width="885px" height="267px" viewBox="0 0 885 267" version="1.1" xmlns="http://www.w3.org/2000/svg" xmlns:xlink="http://www.w3.org/1999/xlink">
    <title>Amazon_logo</title>
    <g id="Page-1" stroke="none" strokeWidth="1" fill="none" fill-rule="evenodd">
        <g id="Amazon_logo" transform="translate(0.489510, 0.000000)" fill-rule="nonzero">
            <path d="M547.720397,208.592134 C496.329651,246.679183 421.841901,267 357.709335,267 C267.785132,267 186.830274,233.557738 125.584794,177.936739 C120.772934,173.562899 125.084344,167.602146 130.858606,171.008284 C196.954416,209.675924 278.679221,232.938436 363.098645,232.938436 C420.032639,232.938436 482.663929,221.094277 540.252374,196.515768 C548.952237,192.799942 556.227777,202.2443 547.720397,208.592134" id="path8" fill="#FF9900"></path>
            <path d="M570.773809,184.007147 C564.227812,175.677971 527.339339,180.071808 510.781882,182.020379 C505.737613,182.631696 504.967523,178.27607 509.511173,175.143049 C538.891051,154.625767 587.100232,160.547888 592.722069,167.425189 C598.343876,174.340717 591.258852,222.290824 563.65023,245.176934 C559.414604,248.692001 555.371501,246.819869 557.258303,242.158563 C563.457707,226.799253 577.358287,192.374535 570.773809,184.007147" id="path10" fill="#FF9900"></path>
            <path d="M511.627696,28.3595939 L511.627696,8.1184469 C511.627696,5.05513196 513.93621,3 516.706423,3 L606.62304,3 C609.508708,3 611.817221,5.09391278 611.817221,8.1184469 L611.817221,25.4513875 C611.778771,28.3595939 609.354803,32.1596557 605.045556,38.1699579 L558.452051,105.213933 C575.765925,104.787418 594.041663,107.385393 609.739558,116.303916 C613.27928,118.320267 614.24116,121.267254 614.51049,124.175491 L614.51049,145.773804 C614.51049,148.720791 611.278562,152.17184 607.892744,150.388159 C580.229032,135.769535 543.485186,134.179714 512.897371,150.543267 C509.780882,152.249416 506.51049,148.837118 506.51049,145.890131 L506.51049,125.377548 C506.51049,122.081578 506.54894,116.45901 509.819333,111.456891 L563.800108,33.4392748 L516.821848,33.4392748 C513.93621,33.4392748 511.627696,31.3841576 511.627696,28.3595939" id="path12" fill="#FFFFFF"></path>
            <path d="M182.883432,155 L155.416654,155 C152.789755,154.807713 150.703654,152.846173 150.51049,150.346151 L150.51049,10.0000245 C150.51049,7.19233152 152.866997,4.96154303 155.802968,4.96154303 L181.415447,4.96154303 C184.081026,5.07685352 186.205718,7.11538451 186.398897,9.65384368 L186.398897,28.0000211 L186.901104,28.0000211 C193.584297,10.2692291 206.139418,2 223.059904,2 C240.250783,2 250.990254,10.2692291 258.716497,28.0000211 C265.361069,10.2692291 280.465861,2 296.652355,2 C308.164455,2 320.758226,6.73076682 328.445833,17.3461535 C337.137855,29.1538448 335.360812,46.3076883 335.360812,61.3461712 L335.322205,149.923096 C335.322205,152.730789 332.965698,155 330.029727,155 L302.601555,155 C299.858762,154.807713 297.656784,152.615406 297.656784,149.923096 L297.656784,75.5384716 C297.656784,69.6154002 298.197597,54.8461659 296.884155,49.2307652 C294.836705,39.8077124 288.694341,37.15384 280.736297,37.15384 C274.091726,37.15384 267.138112,41.5769215 264.318033,48.6538607 C261.497954,55.7307851 261.768376,67.5769133 261.768376,75.5384716 L261.768376,149.923096 C261.768376,152.730789 259.411869,155 256.475897,155 L229.047755,155 C226.266312,154.807713 224.102955,152.615406 224.102955,149.923096 L224.064319,75.5384716 C224.064319,59.8846327 226.652582,36.8461547 207.143847,36.8461547 C187.403282,36.8461547 188.175911,59.3076842 188.175911,75.5384716 L188.175911,149.923096 C188.175911,152.730789 185.819404,155 182.883432,155" id="path14" fill="#FFFFFF"></path>
            <path d="M689.51485,2 C729.73958,2 751.51049,37.0868287 751.51049,81.7005543 C751.51049,124.8039 727.45189,159 689.51485,159 C650.014531,159 628.51049,123.913171 628.51049,80.1901895 C628.51049,36.1960996 650.281428,2 689.51485,2 M689.7436,30.8517694 C669.764705,30.8517694 668.50631,58.502955 668.50631,75.7365737 C668.50631,93.0088946 668.239573,129.877167 689.51485,129.877167 C710.523215,129.877167 711.514538,100.134713 711.514538,82.01035 C711.514538,70.0824035 711.018877,55.8307973 707.47298,44.5224422 C704.42276,34.6857644 698.360481,30.8517694 689.7436,30.8517694" id="path16" fill="#FFFFFF"></path>
            <path d="M803.603597,155 L776.456737,155 C773.734361,154.807713 771.548808,152.615406 771.548808,149.923096 L771.51049,9.53845984 C771.740546,6.9615345 774.002794,4.96154303 776.763489,4.96154303 L802.031562,4.96154303 C804.408809,5.07685352 806.364306,6.69231532 806.901129,8.88462297 L806.901129,30.3461494 L807.39956,30.3461494 C815.029851,11.1538483 825.727529,2 844.553958,2 C856.785381,2 868.710081,6.42308147 876.37869,18.5384581 C883.51049,29.7692302 883.51049,48.6538607 883.51049,62.2307611 L883.51049,150.576948 C883.203752,153.03846 880.941504,155 878.25752,155 L850.918922,155 C848.426602,154.807713 846.356078,152.961557 846.087703,150.576948 L846.087703,74.3461671 C846.087703,59.0000135 847.851475,36.5384547 829.025032,36.5384547 C822.391707,36.5384547 816.295148,41.000017 813.266049,47.7692268 C809.431767,56.3461705 808.933306,64.8846334 808.933306,74.3461671 L808.933306,149.923096 C808.894987,152.730789 806.517696,155 803.603626,155" id="path18" fill="#FFFFFF"></path>
            <g id="use28" transform="translate(357.510490, 0.000000)" fill="#FFFFFF">
                <path d="M81.7037635,87.6827246 L81.7037635,81.7587037 C61.7900119,81.7587037 40.7527517,85.9901472 40.7527517,109.301566 C40.7527517,121.11115 46.912824,129.112457 57.4895751,129.112457 C65.2381108,129.112457 72.1730411,124.380932 76.5509873,116.687374 C81.9749357,107.224309 81.7037635,98.3382706 81.7037635,87.6827246 M109.482247,154.347243 C107.661344,155.96289 105.026821,156.078293 102.973463,155.001214 C93.8302158,147.461546 92.2030051,143.960989 87.1664577,136.767527 C72.0568139,152.077669 61.3638651,156.655304 41.7600493,156.655304 C18.5919222,156.655304 0.537866778,142.460729 0.537866778,114.03312 C0.537866778,91.837238 12.6643191,76.7194293 29.9047988,69.3336357 C44.8594666,62.7941015 65.741767,61.6400928 81.7037635,59.8321131 L81.7037635,56.2930836 C81.7037635,49.7920218 82.2074197,42.0984789 78.3718918,36.4822221 C75.0012566,31.4429329 68.5699972,29.3656762 62.9135516,29.3656762 C52.4143099,29.3656762 43.0385636,34.7126853 40.7527517,45.791383 C40.287828,48.2533337 38.466925,50.6767975 35.987406,50.7921998 L9.25496756,47.9455697 C7.00788822,47.4455174 4.52835444,45.6375083 5.14823789,42.2139106 C11.308325,10.0549109 40.5590298,0.361026636 66.7490942,0.361026636 C80.1540327,0.361026636 97.6657141,3.90005607 108.242465,13.9785904 C121.647447,26.4036584 120.368918,42.9832399 120.368918,61.0246088 L120.368918,103.646822 C120.368918,116.456584 125.715429,122.072841 130.751976,128.997054 C132.534132,131.458961 132.921561,134.420979 130.674482,136.267431 C125.056798,140.922041 115.061198,149.577275 109.559712,154.424202 L109.482247,154.34717" id="path30"></path>
            </g>
            <path d="M81.2519992,87.7159854 L81.2519992,81.7652156 C61.4423694,81.7652156 40.5151053,86.0157654 40.5151053,109.432443 C40.5151053,121.295352 46.6429689,129.332787 57.164418,129.332787 C64.8724394,129.332787 71.7711095,124.579898 76.126165,116.851601 C81.5217535,107.345807 81.2519992,98.4196448 81.2519992,87.7159854 M108.885239,154.681517 C107.073857,156.304459 104.453109,156.420383 102.410488,155.338441 C93.3150467,147.764728 91.6963441,144.248365 86.6861309,137.022423 C71.65549,152.401695 61.0184507,157 41.5171362,157 C18.4701468,157 0.51048951,142.741331 0.51048951,114.185362 C0.51048951,91.8892579 12.573537,76.703187 29.7238725,69.2840441 C44.6003477,62.7149816 65.3734622,61.5557622 81.2519992,59.7396188 L81.2519992,56.1846095 C81.2519992,49.6541931 81.7530219,41.9259112 77.9375486,36.284295 C74.5845372,31.2222517 68.1869046,29.1356155 62.5600344,29.1356155 C52.1156895,29.1356155 42.7889656,34.5067682 40.5151053,45.63549 C40.0526126,48.1085573 38.2412304,50.5429638 35.7746759,50.6588872 L9.18201173,47.7994036 C6.94668156,47.2970934 4.48011236,45.4809205 5.09675466,42.0418641 C11.2246329,9.73765552 40.3223964,0 66.3755225,0 C79.7103714,0 97.1304906,3.55500937 107.65194,13.6790517 C120.986831,26.1602232 119.714987,42.8146672 119.714987,60.9374991 L119.714987,103.752166 C119.714987,116.619769 125.033544,122.261385 130.043757,129.216864 C131.816594,131.689887 132.201997,134.665279 129.966667,136.520068 C124.378357,141.195695 114.43502,149.890011 108.962299,154.758824 L108.885239,154.681443" id="path30" fill="#FFFFFF"></path>
        </g>
    </g>
</svg>