<?xml version="1.0" encoding="UTF-8"?>
<svg width="444px" height="89px" viewBox="0 0 444 89" version="1.1" xmlns="http://www.w3.org/2000/svg" xmlns:xlink="http://www.w3.org/1999/xlink">
    <title>Meta_Platforms_Inc._logo</title>
    <defs>
        <linearGradient x1="13.8784354%" y1="55.9905327%" x2="89.143574%" y2="58.776827%" id="linearGradient-1">
            <stop stop-color="#0064E1" offset="0%"></stop>
            <stop stop-color="#0064E1" offset="40%"></stop>
            <stop stop-color="#0073EE" offset="83%"></stop>
            <stop stop-color="#0082FB" offset="100%"></stop>
        </linearGradient>
        <linearGradient x1="54.3150272%" y1="82.782443%" x2="54.3150272%" y2="39.3067715%" id="linearGradient-2">
            <stop stop-color="#0082FB" offset="0%"></stop>
            <stop stop-color="#0064E0" offset="100%"></stop>
        </linearGradient>
    </defs>
    <g id="Page-1" stroke="none" strokeWidth="1" fill="none" fill-rule="evenodd">
        <g id="Artboard-Copy-14" transform="translate(-88.000000, -90.000000)" fill-rule="nonzero">
            <g id="Meta_Platforms_Inc._logo" transform="translate(88.189413, 90.000000)">
                <path d="M15.2842273,58.6934031 C15.2842273,63.8097382 16.4072625,67.7378534 17.87513,70.1142932 C19.7996675,73.2269634 22.6701641,74.5456545 25.5965795,74.5456545 C29.3710961,74.5456545 32.8240798,73.6090576 39.4784128,64.406178 C44.8093351,57.0298953 51.0908763,46.6760733 55.317403,40.1851309 L62.4750049,29.1882723 C67.447115,21.5510471 73.2020879,13.0610995 79.8005021,7.30638743 C85.1873431,2.60942408 90.9982348,0 96.8464056,0 C106.664809,0 116.017222,5.68947644 123.174824,16.3601571 C131.008111,28.0466492 134.810587,42.7665969 134.810587,57.9571728 C134.810587,66.987644 133.030506,73.6230366 130.001573,78.8651832 C127.075158,83.9349215 121.371444,89 111.776716,89 L111.776716,74.5456545 C119.992114,74.5456545 122.042469,66.9969634 122.042469,58.3579058 C122.042469,46.0470157 119.171972,32.3848168 112.848492,22.6227749 C108.361011,15.6984817 102.54546,11.4674869 96.147421,11.4674869 C89.2274739,11.4674869 83.6588969,16.6863351 77.4006552,25.9917277 C74.0734886,30.9356545 70.6577841,36.9606283 66.8226888,43.7591099 L62.6008221,51.2379058 C54.1198094,66.274712 51.9715969,69.6995812 47.7310905,75.3517801 C40.2985547,85.2489529 33.9517749,89 25.5965795,89 C15.6849784,89 9.41741687,84.7084293 5.53572262,78.2407853 C2.36699261,72.9706806 0.810586992,66.0557068 0.810586992,58.176178 L15.2842273,58.6934031 Z" id="Logo0" fill="#0081FB"></path>
                <path d="M12.810587,17.3806283 C19.4144567,7.1526178 28.9446198,0 39.8753226,0 C46.2055769,0 52.4987308,1.88251309 59.0701377,7.27376963 C66.2583385,13.1682723 73.9195694,22.8743979 83.4775578,38.8710995 L86.9047064,44.6118325 C95.1780937,58.4604188 99.8852059,65.5850785 102.63991,68.944712 C106.182997,73.2595812 108.664086,74.5456545 111.887183,74.5456545 C120.063181,74.5456545 122.103703,66.9969634 122.103703,58.3579058 L134.810587,57.9571728 C134.810587,66.987644 133.039043,73.6230366 130.024636,78.8651832 C127.112256,83.9349215 121.435896,89 111.887183,89 C105.95112,89 100.692139,87.7046073 94.8766531,82.192199 C90.4060559,77.9612042 85.1795382,70.4451309 81.1587833,63.6885864 L69.1985446,43.6146597 C63.1975562,33.5404188 57.6927856,26.0290052 54.5067895,22.6274346 C51.0796409,18.9695812 46.6739694,14.552199 39.6434452,14.552199 C33.9531726,14.552199 29.1208466,18.5641885 25.0769039,24.7009948 L12.810587,17.3806283 Z" id="Logo1" fill="url(#linearGradient-1)"></path>
                <path d="M39.5752219,14.5074147 C33.7993619,14.5074147 28.8943528,18.5070574 24.7895852,24.6249777 C18.9854814,33.2699661 15.4314681,46.1468644 15.4314681,58.5127747 C15.4314681,63.6133643 16.565928,67.5293907 18.0487282,69.8985171 L5.58379158,78 C2.38282598,72.746114 0.810586992,65.8524209 0.810586992,57.9971413 C0.810586992,43.7127032 4.78355018,28.8243702 12.3387705,17.3271395 C19.041969,7.13060568 28.7154753,0 39.810587,0 L39.5752219,14.5074147 Z" id="Logo2" fill="url(#linearGradient-2)"></path>
                <path d="M162.810587,3 L179.576244,3 L208.08206,54.4213374 L236.592542,3 L252.994235,3 L252.994235,87.4925341 L239.317603,87.4925341 L239.317603,22.7366371 L214.316103,67.5790954 L201.484053,67.5790954 L176.487219,22.7366371 L176.487219,87.4925341 L162.810587,87.4925341 L162.810587,3 Z M295.848617,34.5032461 C286.040264,34.5032461 280.132855,41.8637741 278.718996,50.9783597 L312.007667,50.9783597 C311.321736,41.5892664 305.890279,34.5032461 295.848617,34.5032461 Z M265.159019,56.1707423 C265.159019,36.9924259 277.589776,23.0344081 296.086593,23.0344081 C314.280107,23.0344081 325.14302,36.8156243 325.14302,57.1943302 L325.14302,60.9397317 L278.718996,60.9397317 C280.366165,70.8545769 286.964172,77.5358148 297.603108,77.5358148 C306.090926,77.5358148 311.396395,74.9535815 316.426559,70.2311188 L323.691832,79.1037654 C316.846517,85.3802207 308.139387,89 297.117823,89 C277.095159,89 265.159019,74.4417875 265.159019,56.1707423 Z M341.726695,35.7129409 L329.137288,35.7129409 L329.137288,24.5465267 L341.726695,24.5465267 L341.726695,6.08006925 L354.922709,6.08006925 L354.922709,24.5465267 L374.049463,24.5465267 L374.049463,35.7129409 L354.922709,35.7129409 L354.922709,64.0151482 C354.922709,73.6787492 358.021066,77.1124216 365.636304,77.1124216 C369.112623,77.1124216 371.105091,76.8146505 374.049463,76.3261199 L374.049463,87.3715646 C370.38183,88.4044579 366.88218,88.8790305 363.093225,88.8790305 C348.847317,88.8790305 341.726695,81.1183726 341.726695,65.5830989 L341.726695,35.7129409 Z M429.614573,46.5722787 C426.964172,39.9003462 421.052096,34.987124 412.363632,34.987124 C401.071428,34.987124 393.843484,42.9757628 393.843484,55.989288 C393.843484,68.6771262 400.497485,77.0519368 411.822352,77.0519368 C420.725462,77.0519368 427.080827,71.8874702 429.614573,65.4621294 L429.614573,46.5722787 Z M442.810587,87.4925341 L429.857216,87.4925341 L429.857216,78.6803722 C426.236244,83.8681021 419.64757,89 408.97597,89 C391.813687,89 380.344167,74.6744211 380.344167,55.989288 C380.344167,37.1273534 392.088992,23.0344081 409.703898,23.0344081 C418.411027,23.0344081 425.242344,26.5053019 429.857216,32.6328717 L429.857216,24.5465267 L442.810587,24.5465267 L442.810587,87.4925341 Z" id="Text" fill="#FFFFFF"></path>
            </g>
        </g>
    </g>
</svg>