<?xml version="1.0" encoding="UTF-8"?>
<svg width="555px" height="118px" viewBox="0 0 555 118" version="1.1" xmlns="http://www.w3.org/2000/svg" xmlns:xlink="http://www.w3.org/1999/xlink">
    <title>Microsoft_logo_(2012)</title>
    <g id="Page-1" stroke="none" strokeWidth="1" fill="none" fill-rule="evenodd">
        <g id="Artboard-Copy-10" transform="translate(-32.000000, -83.000000)" fill-rule="nonzero">
            <g id="Microsoft_logo_(2012)" transform="translate(32.021825, 83.000000)">
                <path d="M231.375469,24.220339 L231.375469,94.6949153 L219.106096,94.6949153 L219.106096,39.3919492 L218.942504,39.3919492 L197.021225,94.6949153 L188.841643,94.6949153 L166.429589,39.3919492 L166.265997,39.3919492 L166.265997,94.6949153 L154.978175,94.6949153 L154.978175,24.220339 L172.646071,24.220339 L192.931434,76.4237288 L193.258617,76.4237288 L214.689122,24.220339 L231.375469,24.220339 Z M241.51815,29.6038136 C241.51815,27.6461864 242.172517,26.0148305 243.644841,24.7097458 C245.117166,23.404661 246.753082,22.7521186 248.716182,22.7521186 C250.842873,22.7521186 252.642381,23.404661 253.951114,24.7097458 C255.259847,26.0148305 256.077806,27.6461864 256.077806,29.6038136 C256.077806,31.5614407 255.423439,33.1927966 253.951114,34.4978814 C252.47879,35.8029661 250.842873,36.4555085 248.716182,36.4555085 C246.589491,36.4555085 244.953574,35.8029661 243.644841,34.4978814 C242.336108,33.029661 241.51815,31.3983051 241.51815,29.6038136 Z M254.769073,44.1228814 L254.769073,94.6949153 L242.826883,94.6949153 L242.826883,44.1228814 L254.769073,44.1228814 Z M290.922824,86.0487288 C292.722332,86.0487288 294.685432,85.7224576 296.812123,84.7436441 C298.938814,83.9279661 300.901914,82.7860169 302.701422,81.4809322 L302.701422,92.5741525 C300.738322,93.7161017 298.611631,94.5317797 296.157756,95.0211864 C293.703882,95.5105932 291.086416,95.8368644 288.141766,95.8368644 C280.616551,95.8368644 274.56366,93.5529661 269.983095,88.8220339 C265.238937,84.0911017 262.948654,78.0550847 262.948654,70.8771186 C262.948654,62.720339 265.402529,56.0317797 270.146686,50.8114407 C274.890844,45.5911017 281.598101,42.9809322 290.432049,42.9809322 C292.722332,42.9809322 295.012615,43.3072034 297.139306,43.7966102 C299.429589,44.2860169 301.229097,45.1016949 302.53783,45.7542373 L302.53783,57.1737288 C300.738322,55.8686441 298.775223,54.7266949 296.975715,54.0741525 C295.012615,53.4216102 293.049515,52.9322034 291.086416,52.9322034 C286.342258,52.9322034 282.579651,54.4004237 279.635001,57.5 C276.690352,60.5995763 275.381619,64.6779661 275.381619,69.8983051 C275.381619,74.9555085 276.853943,79.0338983 279.635001,81.8072034 C282.416059,84.5805085 286.178667,86.0487288 290.922824,86.0487288 Z M336.56489,43.3072034 C337.54644,43.3072034 338.364398,43.3072034 339.182357,43.470339 C340.000315,43.6334746 340.654681,43.7966102 341.145456,43.9597458 L341.145456,56.0317797 C340.49109,55.5423729 339.673132,55.0529661 338.364398,54.7266949 C337.055665,54.4004237 335.746932,54.0741525 333.947424,54.0741525 C331.002775,54.0741525 328.5489,55.3792373 326.585801,57.8262712 C324.622701,60.2733051 323.47756,64.0254237 323.47756,69.2457627 L323.47756,94.6949153 L311.53537,94.6949153 L311.53537,44.1228814 L323.47756,44.1228814 L323.47756,52.1165254 L323.641151,52.1165254 C324.786293,49.3432203 326.422209,47.2224576 328.5489,45.5911017 C330.839183,44.1228814 333.456649,43.3072034 336.56489,43.3072034 Z M341.799823,70.2245763 C341.799823,61.904661 344.253697,55.2161017 348.834263,50.3220339 C353.578421,45.4279661 360.122086,42.9809322 368.465259,42.9809322 C376.317658,42.9809322 382.53414,45.2648305 386.951114,49.9957627 C391.368089,54.7266949 393.658371,61.0889831 393.658371,69.0826271 C393.658371,77.2394068 391.204497,83.7648305 386.623931,88.6588983 C381.879774,93.5529661 375.4997,96 367.320118,96 C359.467719,96 353.251237,93.7161017 348.670672,89.1483051 C344.090106,84.4173729 341.799823,78.0550847 341.799823,70.2245763 Z M354.232787,69.7351695 C354.232787,74.9555085 355.377929,79.0338983 357.831803,81.8072034 C360.285678,84.5805085 363.721102,86.0487288 368.138076,86.0487288 C372.391459,86.0487288 375.826883,84.7436441 378.117166,81.8072034 C380.407449,79.0338983 381.55259,74.9555085 381.55259,69.4088983 C381.55259,64.0254237 380.407449,59.9470339 378.117166,57.0105932 C375.826883,54.2372881 372.391459,52.7690678 368.301668,52.7690678 C363.884694,52.7690678 360.612861,54.2372881 358.158986,57.1737288 C355.377929,60.2733051 354.232787,64.3516949 354.232787,69.7351695 Z M411.48986,57.5 C411.48986,59.1313559 411.980635,60.5995763 413.125776,61.5783898 C414.270918,62.5572034 416.5612,63.6991525 420.323808,65.1673729 C425.067966,67.125 428.50339,69.2457627 430.302898,71.529661 C432.265997,73.9766949 433.247547,76.75 433.247547,80.1758475 C433.247547,84.9067797 431.448039,88.6588983 427.685432,91.595339 C424.086416,94.5317797 419.015075,95.8368644 412.798593,95.8368644 C410.671902,95.8368644 408.381619,95.5105932 405.764152,95.0211864 C403.146686,94.5317797 401.019995,93.8792373 399.220487,93.0635593 L399.220487,81.3177966 C401.347178,82.7860169 403.801053,84.0911017 406.254927,84.9067797 C408.708802,85.7224576 410.999085,86.2118644 413.125776,86.2118644 C415.743242,86.2118644 417.869934,85.8855932 419.015075,85.0699153 C420.323808,84.2542373 420.978175,83.1122881 420.978175,81.3177966 C420.978175,79.6864407 420.323808,78.3813559 419.015075,77.0762712 C417.706342,75.934322 415.088876,74.6292373 411.48986,73.1610169 C407.072886,71.3665254 403.964644,69.2457627 402.165136,66.9618644 C400.365628,64.6779661 399.384079,61.7415254 399.384079,58.1525424 C399.384079,53.5847458 401.183587,49.8326271 404.782603,46.8961864 C408.381619,43.9597458 413.125776,42.4915254 418.851483,42.4915254 C420.650991,42.4915254 422.614091,42.654661 424.740782,43.1440678 C426.867473,43.6334746 428.830573,44.1228814 430.302898,44.6122881 L430.302898,56.1949153 C428.666981,55.2161017 426.867473,54.2372881 424.740782,53.4216102 C422.614091,52.6059322 420.4874,52.279661 418.5243,52.279661 C416.234017,52.279661 414.434509,52.7690678 413.289368,53.5847458 C412.144226,54.7266949 411.48986,55.8686441 411.48986,57.5 Z M438.318888,70.2245763 C438.318888,61.904661 440.772763,55.2161017 445.353328,50.3220339 C450.097486,45.4279661 456.641151,42.9809322 464.984325,42.9809322 C472.836723,42.9809322 479.053205,45.2648305 483.47018,49.9957627 C487.887154,54.7266949 490.177437,61.0889831 490.177437,69.0826271 C490.177437,77.2394068 487.723562,83.7648305 483.142996,88.6588983 C478.398839,93.5529661 472.018765,96 463.839183,96 C455.986785,96 449.770303,93.7161017 445.189737,89.1483051 C440.772763,84.4173729 438.318888,78.0550847 438.318888,70.2245763 Z M450.751852,69.7351695 C450.751852,74.9555085 451.896994,79.0338983 454.350868,81.8072034 C456.804743,84.5805085 460.240167,86.0487288 464.657141,86.0487288 C468.910524,86.0487288 472.345948,84.7436441 474.636231,81.8072034 C476.926514,79.0338983 478.071656,74.9555085 478.071656,69.4088983 C478.071656,64.0254237 476.926514,59.9470339 474.636231,57.0105932 C472.345948,54.2372881 468.910524,52.7690678 464.820733,52.7690678 C460.403759,52.7690678 457.131926,54.2372881 454.678052,57.1737288 C452.060585,60.2733051 450.751852,64.3516949 450.751852,69.7351695 Z M529.930204,53.9110169 L512.098716,53.9110169 L512.098716,94.6949153 L499.992935,94.6949153 L499.992935,53.9110169 L491.48617,53.9110169 L491.48617,44.1228814 L499.992935,44.1228814 L499.992935,37.1080508 C499.992935,31.8877119 501.792443,27.4830508 505.227867,24.0572034 C508.663291,20.6313559 513.080266,19 518.47879,19 C519.951114,19 521.259847,19.1631356 522.404989,19.1631356 C523.55013,19.1631356 524.53168,19.4894068 525.349638,19.815678 L525.349638,30.0932203 C525.022455,29.9300847 524.204497,29.6038136 523.222947,29.2775424 C522.241397,28.9512712 521.096256,28.7881356 519.787523,28.7881356 C517.333648,28.7881356 515.370549,29.6038136 514.061815,31.0720339 C512.753082,32.5402542 512.098716,34.9872881 512.098716,37.9237288 L512.098716,43.9597458 L529.930204,43.9597458 L529.930204,32.5402542 L541.872394,28.9512712 L541.872394,43.9597458 L553.978175,43.9597458 L553.978175,53.7478814 L541.872394,53.7478814 L541.872394,77.4025424 C541.872394,80.5021186 542.52676,82.6228814 543.50831,83.9279661 C544.653451,85.2330508 546.452959,85.8855932 548.906834,85.8855932 C549.5612,85.8855932 550.379159,85.7224576 551.360708,85.3961864 C552.342258,85.0699153 553.160216,84.7436441 553.814583,84.2542373 L553.814583,94.0423729 C552.996625,94.5317797 551.851483,94.8580508 550.051975,95.184322 C548.252467,95.5105932 546.616551,95.6737288 544.817043,95.6737288 C539.745702,95.6737288 535.983095,94.3686441 533.52922,91.7584746 C531.075346,89.1483051 529.766612,85.0699153 529.766612,79.6864407 L529.930204,53.9110169 L529.930204,53.9110169 Z" id="Shape" fill="#FFFFFF"></path>
                <g id="Group" transform="translate(0.978175, 0.000000)">
                    <rect id="Rectangle" fill="#F25022" x="0" y="0" width="56.05" height="56.05"></rect>
                    <rect id="Rectangle" fill="#7FBA00" x="61.95" y="0" width="56.05" height="56.05"></rect>
                    <rect id="Rectangle" fill="#00A4EF" x="0" y="61.95" width="56.05" height="56.05"></rect>
                    <rect id="Rectangle" fill="#FFB900" x="61.95" y="61.95" width="56.05" height="56.05"></rect>
                </g>
            </g>
        </g>
    </g>
</svg>