<?xml version="1.0" encoding="UTF-8" standalone="no" ?>
<!DOCTYPE svg PUBLIC "-//W3C//DTD SVG 1.1//EN" "http://www.w3.org/Graphics/SVG/1.1/DTD/svg11.dtd">
<svg xmlns="http://www.w3.org/2000/svg" xmlns:xlink="http://www.w3.org/1999/xlink" version="1.1" width="1080" height="1080" viewBox="0 0 1080 1080" xml:space="preserve">
<desc>Created with Fabric.js 5.2.4</desc>
<defs>
</defs>
<g transform="matrix(1 0 0 1 540 540)" id="23a5ec6c-29c0-4693-a5be-d682a4ae03c5"  >
<rect style="stroke: none; stroke-width: 1; stroke-dasharray: none; stroke-linecap: butt; stroke-dashoffset: 0; stroke-linejoin: miter; stroke-miterlimit: 4; fill: rgb(255,255,255); fill-rule: nonzero; opacity: 1; visibility: hidden;" vector-effect="non-scaling-stroke"  x="-540" y="-540" rx="0" ry="0" width="1080" height="1080" />
</g>
<g transform="matrix(1 0 0 1 540 540)" id="2420406e-6a83-4421-87d4-52b44634ebce"  >
</g>
<g transform="matrix(1 0 0 1 540 549.58)"  >
<path style="stroke: rgb(59,130,246); stroke-width: 1; stroke-dasharray: none; stroke-linecap: butt; stroke-dashoffset: 0; stroke-linejoin: miter; stroke-miterlimit: 4; fill: none; fill-rule: nonzero; opacity: 1;" vector-effect="non-scaling-stroke"  transform=" translate(-12, -21.58)" d="M 9.58423 21.1657 C 10.2241 21.6844 11.0711 22 12 22 C 12.9288 22 13.7758 21.6844 14.4157 21.1657" stroke-linecap="round" />
</g>
<g transform="matrix(1 0 0 1 540 538)"  >
<path style="stroke: rgb(59,130,246); stroke-width: 1; stroke-dasharray: none; stroke-linecap: butt; stroke-dashoffset: 0; stroke-linejoin: miter; stroke-miterlimit: 4; fill: none; fill-rule: nonzero; opacity: 1;" vector-effect="non-scaling-stroke"  transform=" translate(-12, -10)" d="M 12.0001 1.99998 C 8.00006 1.99998 5.50005 4.99998 5.50005 8.49998 C 5.50005 10.2133 5.83331 11.5196 4.50155 12.7358 C 1.23731 16 8.00007 18 12.0001 18 C 16 18 22.7628 16 19.4985 12.7358 C 18.1668 11.5196 18.5001 10.2133 18.5001 8.49998 C 18.5001 4.99998 16.0001 1.99998 12.0001 1.99998 Z" stroke-linecap="round" />
</g>
<g transform="matrix(NaN NaN NaN NaN 0 0)"  >
<g style=""   >
</g>
</g>
<g transform="matrix(NaN NaN NaN NaN 0 0)"  >
<g style=""   >
</g>
</g>
<g transform="matrix(NaN NaN NaN NaN 0 0)"  >
<g style=""   >
</g>
</g>
<g transform="matrix(NaN NaN NaN NaN 0 0)"  >
<g style=""   >
</g>
</g>
</svg>