<?xml version="1.0" encoding="UTF-8" standalone="no" ?>
<!DOCTYPE svg PUBLIC "-//W3C//DTD SVG 1.1//EN" "http://www.w3.org/Graphics/SVG/1.1/DTD/svg11.dtd">
<svg xmlns="http://www.w3.org/2000/svg" xmlns:xlink="http://www.w3.org/1999/xlink" version="1.1" width="1080" height="1080" viewBox="0 0 1080 1080" xml:space="preserve">
<desc>Created with Fabric.js 5.2.4</desc>
<defs>
</defs>
<rect x="0" y="0" width="100%" height="100%" fill="transparent"></rect>
<g transform="matrix(1 0 0 1 540 540)" id="23a5ec6c-29c0-4693-a5be-d682a4ae03c5"  >
<rect style="stroke: none; stroke-width: 1; stroke-dasharray: none; stroke-linecap: butt; stroke-dashoffset: 0; stroke-linejoin: miter; stroke-miterlimit: 4; fill: rgb(255,255,255); fill-rule: nonzero; opacity: 1; visibility: hidden;" vector-effect="non-scaling-stroke"  x="-540" y="-540" rx="0" ry="0" width="1080" height="1080" />
</g>
<g transform="matrix(1 0 0 1 540 540)" id="2420406e-6a83-4421-87d4-52b44634ebce"  >
</g>
<g transform="matrix(NaN NaN NaN NaN 0 0)"  >
<g style=""   >
</g>
</g>
<g transform="matrix(NaN NaN NaN NaN 0 0)"  >
<g style=""   >
</g>
</g>
<g transform="matrix(NaN NaN NaN NaN 0 0)"  >
<g style=""   >
</g>
</g>
<g transform="matrix(NaN NaN NaN NaN 0 0)"  >
<g style=""   >
</g>
</g>
<g transform="matrix(1 0 0 1 545.71 545.71)"  >
<path style="stroke: rgb(59,130,246); stroke-width: 1.6; stroke-dasharray: none; stroke-linecap: butt; stroke-dashoffset: 0; stroke-linejoin: miter; stroke-miterlimit: 4; fill: none; fill-rule: evenodd; opacity: 1;" vector-effect="non-scaling-stroke"  transform=" translate(-17.5, -17.5)" d="M 21 17.5 C 21 14.7778 20.2219 14 17.4998 14 C 14.7778 14 14 14.7778 14 17.5 C 14 20.2222 14.8077 21 17.4998 21 C 20.1919 21 21 20.2222 21 17.5 Z" stroke-linecap="round" />
</g>
<g transform="matrix(1 0 0 1 534.71 545.71)"  >
<path style="stroke: rgb(59,130,246); stroke-width: 1.6; stroke-dasharray: none; stroke-linecap: butt; stroke-dashoffset: 0; stroke-linejoin: miter; stroke-miterlimit: 4; fill: none; fill-rule: evenodd; opacity: 1;" vector-effect="non-scaling-stroke"  transform=" translate(-6.5, -17.5)" d="M 10 17.5 C 10 14.7778 9.22186 14 6.49982 14 C 3.77778 14 3 14.7778 3 17.5 C 3 20.2222 3.80769 21 6.49982 21 C 9.19195 21 10 20.2222 10 17.5 Z" stroke-linecap="round" />
</g>
<g transform="matrix(1 0 0 1 545.71 534.71)"  >
<path style="stroke: rgb(59,130,246); stroke-width: 1.6; stroke-dasharray: none; stroke-linecap: butt; stroke-dashoffset: 0; stroke-linejoin: miter; stroke-miterlimit: 4; fill: none; fill-rule: evenodd; opacity: 1;" vector-effect="non-scaling-stroke"  transform=" translate(-17.5, -6.5)" d="M 21 6.5 C 21 3.77778 20.2219 3 17.4998 3 C 14.7778 3 14 3.77778 14 6.5 C 14 9.22222 14.8077 10 17.4998 10 C 20.1919 10 21 9.22222 21 6.5 Z" stroke-linecap="round" />
</g>
<g transform="matrix(1 0 0 1 534.71 534.71)"  >
<path style="stroke: rgb(59,130,246); stroke-width: 1.6; stroke-dasharray: none; stroke-linecap: butt; stroke-dashoffset: 0; stroke-linejoin: miter; stroke-miterlimit: 4; fill: none; fill-rule: evenodd; opacity: 1;" vector-effect="non-scaling-stroke"  transform=" translate(-6.5, -6.5)" d="M 8.97483 8.97487 C 10.8997 7.04997 10.8995 5.94977 8.97471 4.025 C 7.04993 2.10022 5.94999 2.10022 4.02509 4.02513 C 2.10018 5.95003 2.12134 7.07113 4.02496 8.97475 C 5.92858 10.8784 7.04993 10.8998 8.97483 8.97487 Z" stroke-linecap="round" />
</g>
<g transform="matrix(NaN NaN NaN NaN 0 0)"  >
<g style=""   >
</g>
</g>
<g transform="matrix(NaN NaN NaN NaN 0 0)"  >
<g style=""   >
</g>
</g>
<g transform="matrix(NaN NaN NaN NaN 0 0)"  >
<g style=""   >
</g>
</g>
<g transform="matrix(NaN NaN NaN NaN 0 0)"  >
<g style=""   >
</g>
</g>
<g transform="matrix(NaN NaN NaN NaN 0 0)"  >
<g style=""   >
</g>
</g>
<g transform="matrix(NaN NaN NaN NaN 0 0)"  >
<g style=""   >
</g>
</g>
<g transform="matrix(NaN NaN NaN NaN 0 0)"  >
<g style=""   >
</g>
</g>
<g transform="matrix(NaN NaN NaN NaN 0 0)"  >
<g style=""   >
</g>
</g>
</svg>