<?xml version="1.0" encoding="UTF-8" standalone="no" ?>
<!DOCTYPE svg PUBLIC "-//W3C//DTD SVG 1.1//EN" "http://www.w3.org/Graphics/SVG/1.1/DTD/svg11.dtd">
<svg xmlns="http://www.w3.org/2000/svg" xmlns:xlink="http://www.w3.org/1999/xlink" version="1.1" width="1080" height="1080" viewBox="0 0 1080 1080" xml:space="preserve">
<desc>Created with Fabric.js 5.2.4</desc>
<defs>
</defs>
<rect x="0" y="0" width="100%" height="100%" fill="transparent"></rect>
<g transform="matrix(1 0 0 1 540 540)" id="d1ed7bf7-a821-4e71-b2f3-bdc16e816313"  >
</g>
<g transform="matrix(1 0 0 1 540 540)" id="cf8367f3-44d5-49b3-b5c8-503b679cac8f"  >
<rect style="stroke: none; stroke-width: 1; stroke-dasharray: none; strokeLinecap: butt; stroke-dashoffset: 0; strokeLinejoin: miter; stroke-miterlimit: 4; fill: rgb(255,255,255); fill-rule: nonzero; opacity: 1; visibility: hidden;" vector-effect="non-scaling-stroke"  x="-540" y="-540" rx="0" ry="0" width="1080" height="1080" />
</g>
<g transform="matrix(0 0 0 0 968.33 1880.91)"  >
<g style=""   >
</g>
</g>
<g transform="matrix(0 0 0 0 968.33 1880.91)"  >
<g style=""   >
</g>
</g>
<g transform="matrix(0 0 0 0 968.33 1880.91)"  >
<g style=""   >
</g>
</g>
<g transform="matrix(0 0 0 0 968.33 1880.91)"  >
<g style=""   >
</g>
</g>
<g transform="matrix(0 0 0 0 968.33 1880.91)"  >
<g style=""   >
</g>
</g>
<g transform="matrix(0 0 0 0 968.33 1880.91)"  >
<g style=""   >
</g>
</g>
<g transform="matrix(0 0 0 0 968.33 1880.91)"  >
<g style=""   >
</g>
</g>
<g transform="matrix(0 0 0 0 968.33 1880.91)"  >
<g style=""   >
</g>
</g>
<g transform="matrix(0 0 0 0 968.33 1880.91)"  >
<g style=""   >
</g>
</g>
<g transform="matrix(0 0 0 0 968.33 1880.91)"  >
<g style=""   >
</g>
</g>
<g transform="matrix(0 0 0 0 968.33 1880.91)"  >
<g style=""   >
</g>
</g>
<g transform="matrix(0 0 0 0 968.33 1880.91)"  >
<g style=""   >
</g>
</g>
<g transform="matrix(0 0 0 0 968.33 1880.91)"  >
<g style=""   >
</g>
</g>
<g transform="matrix(0 0 0 0 968.33 1880.91)"  >
<g style=""   >
</g>
</g>
<g transform="matrix(0 0 0 0 968.33 1880.91)"  >
<g style=""   >
</g>
</g>
<g transform="matrix(0 0 0 0 968.33 1880.91)"  >
<g style=""   >
</g>
</g>
<g transform="matrix(0 0 0 0 968.33 1880.91)"  >
<g style=""   >
</g>
</g>
<g transform="matrix(0 0 0 0 968.33 1880.91)"  >
<g style=""   >
</g>
</g>
<g transform="matrix(0 0 0 0 968.33 1880.91)"  >
<g style=""   >
</g>
</g>
<g transform="matrix(0 0 0 0 968.33 1880.91)"  >
<g style=""   >
</g>
</g>
<g transform="matrix(19.08 0 0 -19.08 620.13 729.92)"  >
<path style="stroke: none; stroke-width: 1; stroke-dasharray: none; strokeLinecap: butt; stroke-dashoffset: 0; strokeLinejoin: miter; stroke-miterlimit: 4; fill: rgb(59,130,246); fill-rule: nonzero; opacity: 1;" vector-effect="non-scaling-stroke"  transform=" translate(-35, -20)" d="M 46 31 L 14 31 C 13.448 31 13 30.553 13 30 C 13 29.447 13.448 29 14 29 L 46 29 C 50.962 29 55 24.963 55 20 C 55 15.036999999999999 50.962 11 46 11 L 14 11 C 13.448 11 13 10.553 13 10 C 13 9.447 13.448 9 14 9 L 46 9 C 52.065 9 57 13.934999999999999 57 20 C 57 26.065 52.065 31 46 31 z" strokeLinecap="round" />
</g>
<g transform="matrix(19.08 0 0 -19.08 429.13 347.86)"  >
<path style="stroke: none; stroke-width: 1; stroke-dasharray: none; strokeLinecap: butt; stroke-dashoffset: 0; strokeLinejoin: miter; stroke-miterlimit: 4; fill: rgb(59,130,246); fill-rule: nonzero; opacity: 1;" vector-effect="non-scaling-stroke"  transform=" translate(-25, -40)" d="M 46 51 L 14 51 C 7.935 51 3 46.065 3 40 C 3 33.935 7.935 29 14 29 C 14.552 29 15 29.447 15 30 C 15 30.553 14.552 31 14 31 C 9.038 31 5 35.037 5 40 C 5 44.963 9.038 49 14 49 L 46 49 C 46.552 49 47 49.447 47 50 C 47 50.553 46.552 51 46 51 z" strokeLinecap="round" />
</g>
<g transform="matrix(0 0 NaN NaN 0 0)"  >
<g style=""   >
</g>
</g>
<g transform="matrix(NaN NaN NaN NaN 0 0)"  >
<g style=""   >
</g>
</g>
<g transform="matrix(NaN NaN NaN NaN 0 0)"  >
<g style=""   >
</g>
</g>
<g transform="matrix(-8.16 0 0 6.85 113.71 944.65)" id="SVGRepo_iconCarrier"  >
<path style="stroke: rgb(59,130,246); stroke-width: 6; stroke-dasharray: none; strokeLinecap: butt; stroke-dashoffset: 0; strokeLinejoin: miter; stroke-miterlimit: 4; fill: rgb(59,130,246); fill-rule: nonzero; opacity: 1;" vector-effect="non-scaling-stroke"  transform=" translate(-41.5, -54.5)" d="M 37 60 C 36.744 60 36.488 59.902 36.293 59.707 C 35.902 59.316 35.902 58.684 36.293 58.293 L 45.293 49.293 C 45.684 48.902 46.316 48.902 46.707 49.293 C 47.098 49.684 47.098 50.316 46.707 50.707 L 37.707 59.707 C 37.512 59.902 37.256 60 37 60 z" strokeLinecap="round" />
</g>
<g transform="matrix(-8.16 0 0 6.85 113.71 882.99)" id="SVGRepo_iconCarrier"  >
<path style="stroke: rgb(59,130,246); stroke-width: 6; stroke-dasharray: none; strokeLinecap: butt; stroke-dashoffset: 0; strokeLinejoin: miter; stroke-miterlimit: 4; fill: rgb(59,130,246); fill-rule: nonzero; opacity: 1;" vector-effect="non-scaling-stroke"  transform=" translate(-41.5, -45.5)" d="M 46 51 C 45.744 51 45.488 50.902 45.293 50.707 L 36.293 41.707 C 35.902 41.316 35.902 40.684 36.293 40.293 C 36.684 39.902 37.316 39.902 37.707 40.293 L 46.707 49.293 C 47.098 49.684 47.098 50.316 46.707 50.707 C 46.512 50.902 46.256 51 46 51 z" strokeLinecap="round" />
</g>
<g transform="matrix(NaN NaN NaN NaN 0 0)"  >
<g style=""   >
</g>
</g>
<g transform="matrix(6.74 0 0 6.74 957.14 161.16)" id="SVGRepo_iconCarrier"  >
<path style="stroke: rgb(59,130,246); stroke-width: 2.4; stroke-dasharray: none; strokeLinecap: round; stroke-dashoffset: 0; strokeLinejoin: round; stroke-miterlimit: 4; fill: none; fill-rule: nonzero; opacity: 1;"  transform=" translate(-12, -12)" d="M 21 12 C 21 16.9706 16.9706 21 12 21 C 7.02944 21 3 16.9706 3 12 C 3 7.02944 7.02944 3 12 3 C 16.9706 3 21 7.02944 21 12 Z" strokeLinecap="round" />
</g>
<g transform="matrix(NaN NaN NaN NaN 0 0)"  >
<g style=""   >
</g>
</g>
</svg>