<svg viewBox="0 0 24 24" fill="none" fit="" height="100%" width="100%" preserveAspectRatio="xMidYMid meet" focusable="false" xmlns="http://www.w3.org/2000/svg"><path fill-rule="evenodd" clip-rule="evenodd" d="M12 6C19.2 6 21 7.32394 21 13.5C21 19.6761 19.2 21 12 21C4.8 21 3 19.6082 3 13.5C3 7.39181 4.8 6 12 6Z" stroke="currentColor" stroke-width="1.6" strokeLinecap="round" strokeLinejoin="round"></path><path d="M7.79736 6C7.52146 3.40115 9.76073 3 12 3C14.2393 3 16.4785 3.40115 16.2026 6" stroke="currentColor" stroke-width="1.6" strokeLinejoin="round"></path><path d="M12.0001 12.2C9.80386 12.2001 7.59613 11.9558 5.92976 11.7091C5.09852 11.586 4.40631 11.463 3.92308 11.371C3.68154 11.325 3.49244 11.2868 3.36454 11.2603C3.30059 11.2471 3.25196 11.2367 3.21974 11.2298C3.20364 11.2263 3.19163 11.2237 3.18387 11.222C3.17999 11.2212 3.17717 11.2206 3.17543 11.2202C3.17456 11.22 3.17395 11.2198 3.17362 11.2198C3.17346 11.2197 3.17336 11.2197 3.17333 11.2197C3.17332 11.2197 3.17335 11.2197 3.17334 11.2197C3.17339 11.2197 3.17345 11.2197 3 12.0007C2.82655 12.7817 2.82665 12.7817 2.82676 12.7817C2.82682 12.7817 2.82696 12.7818 2.82708 12.7818C2.82732 12.7818 2.82764 12.7819 2.82802 12.782C2.82878 12.7822 2.82982 12.7824 2.83113 12.7827C2.83375 12.7833 2.83745 12.7841 2.84222 12.7851C2.85176 12.7872 2.86558 12.7902 2.88353 12.7941C2.91943 12.8018 2.97188 12.8129 3.03978 12.827C3.17556 12.8551 3.37319 12.895 3.62387 12.9428C4.12504 13.0382 4.83914 13.165 5.69543 13.2918C7.40415 13.5448 9.69647 13.8001 12.0001 13.8L12.0001 12.2ZM21 12C20.8265 11.219 20.8266 11.219 20.8266 11.219C20.8266 11.219 20.8266 11.219 20.8266 11.219C20.8266 11.219 20.8265 11.219 20.8263 11.2191C20.826 11.2192 20.8254 11.2193 20.8245 11.2195C20.8228 11.2199 20.8199 11.2205 20.8161 11.2213C20.8083 11.223 20.7963 11.2256 20.7802 11.2291C20.748 11.236 20.6994 11.2464 20.6354 11.2596C20.5075 11.2861 20.3184 11.3243 20.0769 11.3703C19.5937 11.4624 18.9015 11.5854 18.0703 11.7086C16.404 11.9554 14.1963 12.1999 12.0001 12.2L12.0001 13.8C14.3038 13.7999 16.5961 13.5444 18.3047 13.2913C19.161 13.1644 19.8751 13.0375 20.3762 12.9421C20.6269 12.8944 20.8245 12.8545 20.9603 12.8263C21.0282 12.8122 21.0806 12.8011 21.1165 12.7934C21.1345 12.7895 21.1483 12.7865 21.1578 12.7844C21.1626 12.7834 21.1663 12.7825 21.1689 12.782C21.1702 12.7817 21.1713 12.7815 21.172 12.7813C21.1724 12.7812 21.1727 12.7811 21.173 12.7811C21.1731 12.781 21.1732 12.781 21.1733 12.781C21.1734 12.781 21.1735 12.781 21 12Z" fill="currentColor"></path><path d="M11.2 15C11.2 15.4418 11.5582 15.8 12 15.8C12.4418 15.8 12.8 15.4418 12.8 15H11.2ZM11.2 13V15H12.8V13H11.2Z" fill="currentColor"></path></svg>