<svg viewBox="0 0 24 24" fill="none" fit="" height="100%" width="100%" preserveAspectRatio="xMidYMid meet" focusable="false" xmlns="http://www.w3.org/2000/svg"><path fill-rule="evenodd" clip-rule="evenodd" d="M21 17.5C21 14.7778 20.2219 14 17.4998 14C14.7778 14 14 14.7778 14 17.5C14 20.2222 14.8077 21 17.4998 21C20.1919 21 21 20.2222 21 17.5Z" stroke="currentColor" stroke-width="1.6" strokeLinecap="round" strokeLinejoin="round"></path><path fill-rule="evenodd" clip-rule="evenodd" d="M10 17.5C10 14.7778 9.22186 14 6.49982 14C3.77778 14 3 14.7778 3 17.5C3 20.2222 3.80769 21 6.49982 21C9.19195 21 10 20.2222 10 17.5Z" stroke="currentColor" stroke-width="1.6" strokeLinecap="round" strokeLinejoin="round"></path><path fill-rule="evenodd" clip-rule="evenodd" d="M21 6.5C21 3.77778 20.2219 3 17.4998 3C14.7778 3 14 3.77778 14 6.5C14 9.22222 14.8077 10 17.4998 10C20.1919 10 21 9.22222 21 6.5Z" stroke="currentColor" stroke-width="1.6" strokeLinecap="round" strokeLinejoin="round"></path><path fill-rule="evenodd" clip-rule="evenodd" d="M8.97483 8.97487C10.8997 7.04997 10.8995 5.94977 8.97471 4.025C7.04993 2.10022 5.94999 2.10022 4.02509 4.02513C2.10018 5.95003 2.12134 7.07113 4.02496 8.97475C5.92858 10.8784 7.04993 10.8998 8.97483 8.97487Z" stroke="currentColor" stroke-width="1.6" strokeLinecap="round" strokeLinejoin="round" ></path></svg>