<!DOCTYPE svg PUBLIC "-//W3C//DTD SVG 1.1//EN" "http://www.w3.org/Graphics/SVG/1.1/DTD/svg11.dtd">

<!-- Uploaded to: SVG Repo, www.svgrepo.com, Transformed by: SVG Repo Mixer Tools -->
<svg fill="#3B82F6" height="800px" width="800px" version="1.1" id="Layer_1" xmlns="http://www.w3.org/2000/svg" xmlns:xlink="http://www.w3.org/1999/xlink" viewBox="0 0 512 512" xml:space="preserve">
strokeLinecap
<g id="SVGRepo_bgCarrier" stroke-width="0"/>

<g id="SVGRepo_tracerCarrier" stroke-linecap="round" strokeLinejoin="round"/>

<g id="SVGRepo_iconCarrier"> <g> <g> <g> <path d="M96.003,277.333h85.333c5.888,0,10.667-4.779,10.667-10.667v-85.333c0-5.888-4.779-10.667-10.667-10.667H96.003 c-5.888,0-10.667,4.779-10.667,10.667v85.333C85.336,272.555,90.115,277.333,96.003,277.333z M106.67,192h64v64h-64V192z"/> <path d="M511.235,113.365L468.568,6.699C466.947,2.667,463.043,0,458.67,0H53.336c-4.352,0-8.277,2.645-9.899,6.699 L0.771,113.365c-1.323,3.285-0.917,7.019,1.067,9.941C3.822,126.229,7.128,128,10.67,128h10.667v373.333 c0,5.888,4.779,10.667,10.667,10.667h448c5.888,0,10.667-4.779,10.667-10.667V128h10.667c3.541,0,6.848-1.771,8.832-4.693 C512.131,120.384,512.558,116.651,511.235,113.365z M298.67,490.667h-85.333V384h85.333V490.667z M469.336,490.667H320.003 V373.333c0-5.888-4.779-10.667-10.667-10.667H202.67c-5.888,0-10.667,4.779-10.667,10.667v117.333H42.67V128h426.667V490.667z M26.414,106.667l34.133-85.333h390.891l34.133,85.333H26.414z"/> <path d="M330.67,277.333h85.333c5.888,0,10.667-4.779,10.667-10.667v-85.333c0-5.888-4.779-10.667-10.667-10.667H330.67 c-5.888,0-10.667,4.779-10.667,10.667v85.333C320.003,272.555,324.782,277.333,330.67,277.333z M341.336,192h64v64h-64V192z"/> </g> </g> </g> </g>

</svg>