<svg viewBox="0 0 24 24" fill="none" fit="" height="100%" width="100%" preserveAspectRatio="xMidYMid meet" focusable="false" xmlns="http://www.w3.org/2000/svg"><path fill-rule="evenodd" clip-rule="evenodd" d="M14.5 11C16.5707 11 18.25 9.32065 18.25 7.25C18.25 5.17852 16.5707 3.5 14.5 3.5C12.4294 3.5 10.75 5.17852 10.75 7.25C10.7426 9.3132 12.4103 10.9926 14.4735 11H14.5Z" stroke="currentColor" stroke-width="1.6" strokeLinecap="round" strokeLinejoin="round"></path><path fill-rule="evenodd" clip-rule="evenodd" d="M14.5 20C10.9945 20 8 19.5256 8 17.6265C8 15.7273 10.9752 14 14.5 14C18.0055 14 21 15.7109 21 17.6092C21 19.5075 18.0248 20 14.5 20Z" stroke="currentColor" stroke-width="1.6" strokeLinecap="round" strokeLinejoin="round"></path><path d="M8.4324 10.5006H8.40946C6.62099 10.4942 5.1753 9.03846 5.18175 7.24999C5.18175 5.45434 6.63748 3.99933 8.4324 3.99933M5.93243 19.3744C4.21009 19.1552 3 18.6273 3 17.5236C3 16.4184 4.20561 15.3828 5.93243 14.8557" stroke="currentColor" stroke-width="1.6" strokeLinecap="round" strokeLinejoin="round" ></path></svg>